<svg xmlns="http://www.w3.org/2000/svg" xmlns:xlink="http://www.w3.org/1999/xlink" width="64" height="64"><defs><linearGradient xlink:href="#a" id="c"><stop offset="0" stop-opacity=".486"/><stop offset="1" stop-color="#5e5e5e" stop-opacity=".216"/></linearGradient><linearGradient xlink:href="#a" id="d" x1="15.568" x2="43.591" y1="5.25" y2="47.773"><stop offset="0" stop-color="#f46363"/><stop offset="1" stop-color="#9f0000"/></linearGradient><linearGradient xlink:href="#a" id="b" x1="26.703" x2="28.896" y1="20.282" y2="42.014"><stop offset="0"/><stop offset="1" stop-color="#545454"/></linearGradient><linearGradient xlink:href="#c" id="h" x1="25.456" x2="25.456" y1="22.471" y2="31.342"/><linearGradient xlink:href="#c" id="j" x1="23.399" x2="23.399" y1="40.856" y2="31.985"/><linearGradient id="a" gradientUnits="userSpaceOnUse"/><radialGradient xlink:href="#a" id="e" cx="29.511" cy="23.535" r="26.856" fx="29.511" fy="23.535" gradientTransform="matrix(1.1743548 -.02962086 .01351158 .5356829 -5.9207362 14.816771)"><stop offset="0" stop-color="#fff"/><stop offset=".333" stop-color="#fff"/><stop offset="1" stop-color="gray"/></radialGradient><radialGradient xlink:href="#a" id="g" cx="29.727" cy="27.727" r="13.79" fx="29.727" fy="27.727" gradientTransform="matrix(1.1363636 0 0 1.0989082 -4.8527018 -1.822019)"><stop offset="0" stop-color="#083de2"/><stop offset=".564" stop-color="#0638d7"/><stop offset="1" stop-color="#041f78"/></radialGradient><filter id="i"><feGaussianBlur stdDeviation=".356"/></filter><filter id="k"><feGaussianBlur stdDeviation=".359"/></filter><clipPath id="f"><path fill="none" stroke="url(#b)" stroke-width="2" d="M1.5261376 29.127791S18.797327 17.997929 29.810162 17.775758c11.012835-.222171 37.472337 12.732686 37.472337 12.732686S40.555197 41.353398 29.41067 41.323556C18.346041 41.293928 1.5261376 29.127791 1.5261376 29.127791z"/></clipPath></defs><g fill="url(#d)" fill-rule="evenodd" stroke="#000" stroke-width="1.5"><path d="M18.364 4.545h27.364L32.273 30.727 18.364 4.545zM48.455 7.273l13.909 22.818L36 30 48.455 7.273zM15.5 7.227 1.591 30.045l26.182-.091L15.5 7.227zM18.386 59.727H45.75L32.295 33.545 18.386 59.727zM48.477 57l13.909-22.818-26.364.091L48.477 57zM15.523 57.045 1.614 34.227l26.182.091-12.273 22.727z"/></g><path fill="url(#e)" fill-rule="evenodd" d="M6.169 30.665s13.896-9.328 22.756-9.514 30.148 10.671 30.148 10.671-21.504 9.089-30.47 9.064c-8.902-.025-22.435-10.221-22.435-10.221z"/><path stroke="url(#g)" stroke-width="5.141" d="M41.090908 27.727272a11.363636 10.909091 0 1 1-22.727272 0 11.363636 10.909091 0 1 1 22.727272 0z" clip-path="url(#f)" transform="matrix(.804553 0 0 .83807 5.840641 5.86809)"/><path fill="url(#h)" fill-rule="evenodd" d="M6.685 30.959s13.638-9.745 21.856-10.028 29.441 11.314 29.441 11.314-21.725-9.264-31.113-7.971c-9.372 1.291-20.185 6.685-20.185 6.685z" filter="url(#i)"/><path fill="none" stroke="url(#b)" stroke-width="2" d="M6.1685442 30.664918s13.8955788-9.327606 22.7559828-9.513801c8.860404-.186195 30.148462 10.670885 30.148462 10.670885s-21.503517 9.088833-30.469874 9.063823c-8.902075-.02483-22.4345708-10.220907-22.4345708-10.220907z"/><path fill="url(#j)" fill-rule="evenodd" d="M5.014 32.244s14.281-10.517 22.499-10.799 29.184 10.542 29.184 10.542-21.467-8.493-30.856-7.2c-9.372 1.291-20.828 7.457-20.828 7.457z" filter="url(#k)" transform="matrix(1 0 0 -1 2.057038 63.326784)"/><script/></svg>